<svg xmlns="http://www.w3.org/2000/svg" viewBox="0 0 642.4 536.89"><defs><style>.cls-1{fill:#020202;}.cls-2{fill:#120506;}</style></defs><g id="Warstwa_1" data-name="Warstwa 1"><path class="cls-1" d="M710.81,552.86c-.6-2.69-1-5.35-.16-8.06l.4-.84c0-.35,0-.82.06-1.17a9.1,9.1,0,0,1-.87-1.95c-.31-1.87-.4-3.79-.74-5.66-.75-4.16-1.65-8.3-2.37-12.47-.33-1.94-.17-4-.57-5.88-.81-3.86-1.84-7.68-2.81-11.5a8.1,8.1,0,0,0-.81-2.4c-1.57-2.51-2-5.39-2.9-8.14a2.33,2.33,0,0,1,.91-3l.2-.16a177.92,177.92,0,0,1-3.54-22.05c-.05-.5-.08-1-.13-1.49-.13-.73-.24-1.46-.37-2.18q-.74-4.17-1.53-8.32a3.47,3.47,0,0,0-1.67-2.31,4,4,0,0,1-1.4-2c-1.11-3-2.07-6.14-3.16-9.18-.87-2.43-1.17-4.69,1.25-6.46.09-.07.12-.24.23-.49a7.37,7.37,0,0,1-.57-1.23c-.4-1.56-1.18-3.18-1-4.69.3-2.84-.4-5.46-1-8.12-.33-1.36-1-2.65,0-4,.32-.42,0-.79,0-1,0-.81.37-5.59,3.27-8,.37-.31.77-.36,1-.88.47-1,.82-2.1,1.2-3.16.89-2.52.71-5.15.9-7.75.08-1.25-.6-2.17-.41-3.72a3.59,3.59,0,0,1,1-2.43c.47-.4.78-.29,1.3-.74a4.86,4.86,0,0,0,1.32-2c2.09-5.4,4.38-10.73,6.46-16.14q.46-1.23.81-2.49c1-3.78,1.91-7.59.6-11.54-2.18-6.58-4.88-12.85-9.18-18.42-3.19-4.12-5.84-8.64-8.67-13-1.26-2-2.38-4-3.55-6-2.86-4.94-5.65-9.93-8.59-14.82s-6.1-10-9.34-14.87a58.89,58.89,0,0,0-12-12.93,13.51,13.51,0,0,0-10.58-3.05,9,9,0,0,1-5.87-.84,17.73,17.73,0,0,1-3.54-2.62,3.6,3.6,0,0,0-3-1.08,7.86,7.86,0,0,0-3.73,1.28,6.32,6.32,0,0,1-2.75.88,8.43,8.43,0,0,1-5.32-1,6.91,6.91,0,0,0-2.57-.92q-5.67-.58-11.37-1c-.89-.06-1.86.42-2.72.24-2.71-.54-5.3.31-7.95.43a7.25,7.25,0,0,1-1.68-.05,1.62,1.62,0,0,1-1.52-1.56,20.5,20.5,0,0,0-.39-2.83c-.49-2-1.17-3.88-1.64-5.85a3.18,3.18,0,0,1,.18-2.05c1.42-2.68,1.19-5.56.72-8.28-.88-5.18.9-9.73,2.58-14.37a23.87,23.87,0,0,0,1.35-4.41c.68-4.31,1.2-8.65,1.8-13,.2-1.47.76-3,.64-4.38a12.33,12.33,0,0,1,.76-5c.3-.93.44-1.92.67-2.88a18.86,18.86,0,0,1,.51-1.82c1-2.64,1.89-5.29,2.91-7.91a4.29,4.29,0,0,1,1.32-2,4.28,4.28,0,0,0,2-3.74c.07-1.12.17-2.25.19-3.38a24.26,24.26,0,0,0-.1-4.18c-.7-4-1.56-8-2.35-12a15.77,15.77,0,0,1-.23-1.68c-.2-2.33-.38-4.66-.57-7-4.42-12-8.77-24-14.24-35.49h-.13c-.1-.35-.2-.71-.31-1.07l0-.12c-.14-.43-.27-.87-.39-1.31-.41-1.49-.79-3-1.19-4.48-.14-.54-.34-1.07-.47-1.62l-.18-.77c-3-5.52-6.12-11-9.5-16.26a10,10,0,0,1-5.45-5.33,24.2,24.2,0,0,0-3-4.54A9.76,9.76,0,0,1,564.85,87a6.56,6.56,0,0,0-2.48-4.51c-2.41-1.94-4.82-3.89-7.13-6a5.6,5.6,0,0,1-1.41-2.28c-.89-2.52.17-4.85,1-7.17a1.85,1.85,0,0,1,.72-.75c2-1.32,4-2.72,6-3.89a11.17,11.17,0,0,0,3.29-2.9,5.64,5.64,0,0,1,2.21-1.84,3.62,3.62,0,0,0,2.36-3c.33-1.44.57-2.91,1-4.33,1.16-3.9,0-7.53-1.15-11.17a2.24,2.24,0,0,0-.48-.85,23.85,23.85,0,0,0-8.51-6.64c-5.06-2.11-10-2.16-14.58,1.38a4.74,4.74,0,0,1-2.7,1,6.29,6.29,0,0,0-2.5,1c-1.82,1.09-3.88,2-4.64,4.23a1.24,1.24,0,0,1-.61.56c-2.17,1.12-3.37,3.15-4.84,4.95-2.88,3.52-3.21,7.35-1.78,11.54a41.73,41.73,0,0,1,1.45,5.51c.57,2.92-1,4.66-4,4.48a13,13,0,0,1-4.61-.61,15.87,15.87,0,0,1-2.52-1.17,14.34,14.34,0,0,0-7.11-1.43,65.26,65.26,0,0,0-12.5-1.7,84,84,0,0,0-17.24,1.42c-1.44.23-2.55.41-4.08.76a57.12,57.12,0,0,0-11.65,4.07c-6.11,2.79-6.93,3.62-19.33,10.23-4.95,2.65-6.38,3.35-8.71,5.12-3.19,2.42-4.16,3.88-8.56,8.43-7.65,7.91-7.58,6.45-10.61,10.36-2,2.56-1.4,2.38-7.83,12.88-3.39,5.53-3.4,5.33-4.3,7.08a46.14,46.14,0,0,0-4.66,13.5,42.94,42.94,0,0,0-.5,6.05,23.46,23.46,0,0,0,.46,5.65,14.27,14.27,0,0,0,.8,2.6,10.23,10.23,0,0,0,1.8,3c1.41,1.55,2.39,1.4,3.27,2.84a5.36,5.36,0,0,1,.71,2.18c1.7,12,2.32,24,2.32,24a73.91,73.91,0,0,1-.09,12.22c-.09.84-.13,1.1-.19,1.89a38.81,38.81,0,0,0,.76,10.52c.86,4.41,1.32,6.59,2.46,7.77a32.65,32.65,0,0,0,4.07,3.91,2.89,2.89,0,0,1,1.22,1.45,2.53,2.53,0,0,1,.13.8h0c1.54.36,2.06,1.65,2.46,2.92a18.14,18.14,0,0,1,.77,8.74c-.78,4.49-1.78,8.95-2.47,13.46-.76,5-1.31,10-1.87,15-.15,1.38,0,2.79,0,4.19a.36.36,0,0,1,0,.1,1.45,1.45,0,0,1,0,.29,13.93,13.93,0,0,0,.1,1.44,8.76,8.76,0,0,0,.18.89c.42.81.83,1.63,1.24,2.44a8.26,8.26,0,0,0,8.73,1c1.1-.45,2.23-.83,3.34-1.27,3.83-1.52,5.91-.54,7.46,3.5.06.43.16,1.09.23,1.52l-.05,1.25c1,3.58,3.24,5.66,7,5.68.44,1-.27,1.43-.73,1.9a6.64,6.64,0,0,0-1.9,5.2,5.21,5.21,0,0,0,3.65,4.92,31.87,31.87,0,0,1,4.81,2.14,9.28,9.28,0,0,1,4.75,6.64c.13.76.25,1.53.37,2.29l.08.59.27.64c.5,1.69,1,3.39,1.49,5.08,1.19,1.91,2.39,3.8,3.57,5.71,1.31,2.13,2.71,4.15,5.37,4.73a3.48,3.48,0,0,1,.41.1H469c.33,0,.68.07,1,.09a9.76,9.76,0,0,1,1.59-.26,3.5,3.5,0,0,1,.73-.15,17,17,0,0,1,4.55.33l.87,0a37.08,37.08,0,0,1,3.8-.23c.13,0,.25,0,.38,0l.88-.1c.63-.16,1.27-.29,1.9-.41.93-.31,1.86-.6,2.8-.87a3,3,0,0,1,1.18-.08l.42,0h.65a8.72,8.72,0,0,1,1.14.07l.38,0a3.78,3.78,0,0,1,1.23.32l.49.17a6.58,6.58,0,0,1,1.66.82l.11.08.13.1a10.44,10.44,0,0,1,4.41,8.31c.08,5.21,0,10.42,0,15.63,0,1.41.1,2.82,0,4.23-.1,2.09-.31,4.18-.47,6.27-.24.94-.54,1.87-.72,2.83-.26,1.43-.32,2.9-1.92,3.67-.25.12-.26.74-.38,1.13l0,0,.41.39,0,0V364h0l-.45.78L487.36,375q-1.75,1.93-3.51,4a195.79,195.79,0,0,0-16.29,21.94c-2.44,3.31-5.84,8-9.85,13.65-3.43,4.83-6.16,8.69-9.48,13.67-5.43,8.16-8.15,12.24-10.1,16.14-3,5.91-3.9,9.95-6.7,21.47-7.85,32.28-7.57,29.29-8.34,34.11-1.7,10.72-2.55,22.05-3.28,31.83-.39,5.23-1.09,10.43-1.52,15.66A75.13,75.13,0,0,1,416.65,559c-.61,2.68-1.28,4.86-1.77,6.32,206.44.59,276.58.16,281.32-.67l.19,0c1.9-.34,13.82-2.63,14.67-7.81A8,8,0,0,0,710.81,552.86Z" transform="translate(-116.64 -30.24)"/><path class="cls-1" d="M409.58,263.08c.44,4.59-8.17,6.33-8.46,11.34-.23,4,5,5.84,4.07,10A6.54,6.54,0,0,1,403,288.1c-1.58,1.17-3.32,1-3.43,1.73s1.1.91,2,2.31a6.85,6.85,0,0,1,1,3.29c.16,4.16-6.69,5.61-7.93,10.58-.37,1.49-.39,3.94,2,7.65a13.32,13.32,0,0,1-.75,8.34c-.93,1.95-3.39,5.24-13,7.51a45,45,0,0,1-11.91,1.26,21.22,21.22,0,0,0-6.57,7.29c0,.11-.09.21-.14.31a11.59,11.59,0,0,0-2.08,5.26,15.09,15.09,0,0,0-1.47,7.25,35,35,0,0,0,0,7.72c-1.83,17.17-2.86,36.58,9.48,49.84a6.19,6.19,0,0,0,1,.88,5.78,5.78,0,0,0,1.81,2.8,121.22,121.22,0,0,1,9.54,9.17,128.56,128.56,0,0,0,6.05,13l.42,2.08a4.93,4.93,0,0,0,1.07,1.75c.95,3.16,2,6.28,3.07,9.39,1.79,5.29,2.26,7.28,3.43,10.65.92,2.64,2.08,5.78,3.54,9.29,1.45,4.92,3.48,12.07,5.7,20.81,1.9,7.46,2.85,11.2,3.39,14.3,1.85,10.68,1.77,20.48,2.06,28.17.12,3,0,3.62.09,7.94.12,10.86.43,20.23.76,27.71q-39.3.68-79.58.76-50.79.09-100-.76a7.56,7.56,0,0,1-5.56-.51c-7.26-4.09-4.08-23.86,2.3-63.41.7-4.35,1.75-8.4,2-14.45a101.66,101.66,0,0,1,1.07-11.14c.62-4,1.49-8.05,2.38-12s1.87-7.67,2.9-11.48c1.1-4,2.32-8,3.48-12,1.08-3.65,2-7.36,4.29-10.53,1.44-2,2.82-4.05,4.19-6.09a24.87,24.87,0,0,0,3.82-7.74,11.15,11.15,0,0,1,1-2.09c1-2.07,2.18-4.1,3.15-6.2,1.19-2.54,2.2-5.16,3.24-7.75.76-1.9,1.44-3.83,2.14-5.75a10.07,10.07,0,0,1,2.29-3.83c2.26-2.25,2.67-5,2-8a14.26,14.26,0,0,1-.37-3.19c0-1.38-.22-2.53-1.56-3.1L265,375c.69-.51.6-1.18.46-1.92-.55-2.9-1.1-5.81-1.62-8.73-.3-1.73-.47-3.48-.81-5.21-.48-2.42-1.21-4.79-1.53-7.23a115.14,115.14,0,0,0-3.84-17.22h0a263.24,263.24,0,0,1-11.41-125.32q1.42-5.13,2.86-10.27a78.09,78.09,0,0,1,15.42-11.85c11.74-6.88,22.24-8.84,31.92-10.65a139.26,139.26,0,0,1,28.92-2.15c4.84.13,8.93.48,12,.82a88.83,88.83,0,0,1,22,4.77c5.79,2.07,9.5,4.14,12.46,7.64a26.49,26.49,0,0,1,3.25,5.17,87.2,87.2,0,0,1,9.51,28,37.66,37.66,0,0,1,1.6,7.52c.14,1.4.11,2.53.25,4.68.41,6.12.81,8.12,1.36,9.37.15.33.29.57.34.67,1,1.77,2.26,3.1,6.13,5.88,1.87,1.34,1.78,1.18,3.54,2.46,1.07.79,1.5,1.14,3.85,3,4.58,3.58,5.18,4,6.06,5.18C408.88,261.21,409.48,262,409.58,263.08Z" transform="translate(-116.64 -30.24)"/></g><g id="Warstwa_3" data-name="Warstwa 3"><path class="cls-2" d="M195.85,162.47,178.34,145c-16.13-16.14.42-32.69,16.55-16.55,17.41-17.41,34.92.1,17.51,17.51Z" transform="translate(-116.64 -30.24)"/><path class="cls-2" d="M735.31,215.63,717.8,198.12c-16.13-16.14.41-32.69,16.55-16.55,17.41-17.4,34.91.11,17.51,17.51Z" transform="translate(-116.64 -30.24)"/><path class="cls-2" d="M140.75,354.75l-17.51-17.51c-16.13-16.13.41-32.68,16.55-16.55,17.41-17.4,34.91.11,17.51,17.51Z" transform="translate(-116.64 -30.24)"/><path class="cls-2" d="M351.45,78.12,333.94,60.61c-16.14-16.14.41-32.68,16.55-16.55,17.4-17.4,34.91.11,17.5,17.51Z" transform="translate(-116.64 -30.24)"/><path class="cls-2" d="M653.85,102.37,636.34,84.86c-16.14-16.13.41-32.68,16.55-16.54,17.4-17.41,34.91.1,17.5,17.5Z" transform="translate(-116.64 -30.24)"/><path class="cls-2" d="M420.41,412l-17.5-17.5c-16.14-16.14.41-32.69,16.54-16.55,17.41-17.41,34.92.1,17.51,17.51Z" transform="translate(-116.64 -30.24)"/></g></svg>